<?xml version="1.0" standalone="no"?>
<!DOCTYPE svg PUBLIC "-//W3C//DTD SVG 20010904//EN"
 "http://www.w3.org/TR/2001/REC-SVG-20010904/DTD/svg10.dtd">
<svg version="1.0" xmlns="http://www.w3.org/2000/svg"
 width="900.000000pt" height="900.000000pt" viewBox="0 0 900.000000 900.000000"
 preserveAspectRatio="xMidYMid meet">

<g transform="translate(0.000000,900.000000) scale(0.100000,-0.100000)"
fill="#000000" stroke="none">
<path d="M4155 8979 c-754 -69 -1347 -250 -1925 -587 -532 -310 -1027 -771
-1398 -1304 -462 -662 -709 -1308 -803 -2098 -74 -627 2 -1311 216 -1940 212
-623 568 -1192 1065 -1704 722 -744 1627 -1185 2707 -1321 109 -14 201 -16
535 -12 l403 4 200 36 c1019 181 1848 584 2492 1210 313 305 543 602 755 972
324 568 497 1115 575 1815 24 217 24 724 0 940 -64 573 -208 1063 -462 1570
-220 440 -476 794 -801 1110 -597 579 -1307 993 -2029 1181 -210 54 -321 76
-540 105 -166 22 -234 26 -540 29 -192 2 -395 -1 -450 -6z m2959 -1471 c19
-137 27 -831 21 -1758 l-6 -1005 -1605 -3 -1604 -2 0 1183 0 1184 113 16 c61
9 283 41 492 71 528 77 1521 213 2080 286 249 33 467 63 496 69 4 0 9 -18 13
-41z m-3444 -1598 l0 -1170 -1205 0 -1205 0 2 1003 3 1002 435 62 c417 59 970
135 1525 209 211 28 348 48 438 63 4 0 7 -525 7 -1169z m-2 -2608 c2 -1026 0
-1152 -13 -1152 -51 0 -751 93 -1585 210 -228 32 -504 71 -612 86 l-198 27 0
987 c0 543 2 989 5 991 2 3 543 5 1202 4 l1198 0 3 -1153z m3425 1149 l47 -1
0 -1384 c0 -762 -4 -1387 -9 -1390 -9 -6 -264 27 -1331 170 -337 45 -909 125
-1245 174 -233 34 -625 90 -632 90 -2 0 -3 524 -3 1165 0 1030 2 1165 15 1172
12 7 2942 11 3158 4z"/>
</g>
</svg>
