<?xml version="1.0" standalone="no"?>
<!DOCTYPE svg PUBLIC "-//W3C//DTD SVG 20010904//EN"
 "http://www.w3.org/TR/2001/REC-SVG-20010904/DTD/svg10.dtd">
<svg version="1.0" xmlns="http://www.w3.org/2000/svg"
 width="1280.000000pt" height="780.000000pt" viewBox="0 0 1280.000000 780.000000"
 preserveAspectRatio="xMidYMid meet">

<g transform="translate(0.000000,780.000000) scale(0.100000,-0.100000)"
fill="#000000" stroke="none">
<path d="M1405 7791 c-102 -25 -185 -90 -236 -183 l-34 -63 -3 -3375 c-2
-2516 0 -3386 9 -3417 12 -45 34 -70 77 -90 21 -9 -103 -12 -576 -12 -600 -1
-602 -1 -623 -22 -19 -19 -21 -28 -14 -78 3 -31 10 -128 14 -216 6 -137 10
-166 29 -202 27 -51 82 -98 141 -118 40 -13 706 -15 6211 -15 5505 0 6171 2
6211 15 59 20 114 67 141 118 19 36 23 65 29 207 4 91 10 188 14 216 7 45 5
54 -14 73 -21 21 -23 21 -623 21 -575 1 -601 2 -568 18 23 11 43 32 58 62 l22
44 -2 3386 -3 3385 -34 63 c-40 74 -93 124 -171 161 l-55 26 -4985 2 c-2742 0
-4998 -2 -5015 -6z m3255 -101 c43 -43 38 -109 -13 -141 -89 -55 -188 61 -116
137 29 31 99 34 129 4z m6660 -3465 l0 -3225 -4920 0 -4920 0 0 3225 0 3225
4920 0 4920 0 0 -3225z m-3320 -3586 c0 -27 -35 -81 -61 -94 -42 -22 -3036
-22 -3078 0 -26 13 -61 67 -61 94 0 8 444 11 1600 11 1156 0 1600 -3 1600 -11z
m3354 -193 c50 -21 76 -60 76 -115 0 -63 -27 -104 -83 -126 -136 -52 -249 115
-144 213 44 41 96 51 151 28z m423 3 c42 -16 72 -48 84 -91 8 -32 6 -46 -10
-84 -50 -113 -217 -103 -252 16 -14 45 -8 76 22 115 38 48 100 65 156 44z
m458 -13 c60 -40 78 -126 37 -184 -32 -44 -97 -67 -150 -53 -124 34 -132 200
-12 250 32 14 94 7 125 -13z m-10914 -76 c26 -14 24 -45 -3 -64 -34 -24 -762
-24 -796 0 -26 18 -28 37 -6 58 13 14 64 16 400 16 247 0 392 -4 405 -10z"/>
</g>
</svg>
