<?xml version="1.0" standalone="no"?>
<!DOCTYPE svg PUBLIC "-//W3C//DTD SVG 20010904//EN"
 "http://www.w3.org/TR/2001/REC-SVG-20010904/DTD/svg10.dtd">
<svg version="1.0" xmlns="http://www.w3.org/2000/svg"
 width="1024.000000pt" height="994.000000pt" viewBox="0 0 1024.000000 994.000000"
 preserveAspectRatio="xMidYMid meet">

<g transform="translate(0.000000,994.000000) scale(0.100000,-0.100000)"
fill="#000000" stroke="none">
<path d="M1393 9930 c-258 -22 -510 -110 -730 -256 -147 -98 -330 -287 -435
-450 -80 -125 -161 -324 -202 -499 -21 -90 -21 -90 -24 -2655 -2 -1794 0
-2591 8 -2650 83 -656 595 -1189 1248 -1301 109 -18 172 -19 1383 -19 l1269 0
0 -445 0 -444 -947 -4 c-1040 -3 -977 0 -1116 -64 -244 -115 -386 -411 -322
-675 53 -222 231 -402 448 -453 94 -22 6200 -22 6294 0 165 39 321 161 393
309 57 116 73 191 68 306 -14 267 -182 476 -450 558 -47 14 -163 16 -1000 19
l-948 4 0 444 0 445 1269 0 c1211 0 1274 1 1383 19 506 87 934 425 1139 901
46 107 94 283 109 400 8 59 10 856 8 2650 -3 2565 -3 2565 -24 2655 -76 323
-213 567 -446 791 -256 246 -566 383 -936 414 -139 11 -7298 11 -7439 0z
m7427 -620 c118 -13 191 -34 288 -80 98 -47 150 -82 226 -151 138 -126 231
-290 271 -482 22 -102 22 -5047 1 -5160 -51 -264 -235 -505 -481 -629 -27 -14
-88 -39 -135 -54 l-85 -29 -3785 0 -3785 0 -85 29 c-47 15 -107 40 -135 54
-246 124 -430 365 -481 629 -21 113 -21 5058 1 5160 20 95 49 175 91 252 141
257 393 427 683 461 100 11 7309 12 7411 0z"/>
<path d="M6445 8655 c-60 -16 -128 -82 -144 -141 -6 -22 -11 -125 -11 -236 l0
-196 -52 -17 c-29 -9 -106 -40 -172 -67 l-118 -50 -152 150 c-83 83 -164 156
-179 162 -45 16 -126 12 -171 -10 -55 -26 -380 -353 -401 -402 -20 -50 -19
-124 4 -173 11 -23 77 -98 159 -179 l141 -139 -50 -99 c-27 -54 -63 -138 -79
-186 l-29 -87 -218 -5 c-236 -5 -250 -8 -304 -67 -58 -61 -59 -70 -59 -353 0
-213 3 -267 15 -298 20 -47 50 -79 100 -105 36 -20 61 -22 254 -27 l214 -5 27
-80 c15 -44 46 -122 70 -173 l43 -93 -48 -49 c-27 -27 -47 -51 -44 -53 2 -2
58 -14 124 -27 156 -29 346 -82 440 -120 144 -61 279 -179 340 -300 l24 -48
73 28 c153 59 369 78 502 44 152 -39 292 -144 359 -272 l36 -67 1 60 0 60 88
28 c48 16 132 51 187 78 l99 49 151 -149 c153 -152 181 -171 255 -171 76 0
100 17 289 203 194 193 221 229 221 307 0 74 -29 116 -182 268 l-145 144 48
107 c26 59 56 134 66 168 l18 61 215 4 c215 3 215 3 263 31 26 15 60 47 75 69
l27 41 3 261 c4 286 0 315 -50 372 -58 66 -70 68 -312 74 l-218 5 -37 105
c-21 58 -54 137 -74 176 l-36 71 150 149 c155 155 189 203 189 268 0 90 -14
111 -199 299 -107 108 -191 185 -216 197 -50 24 -131 26 -181 5 -21 -9 -101
-79 -190 -167 l-154 -151 -107 50 c-60 28 -138 61 -175 73 l-68 22 0 192 c0
236 -9 276 -76 335 -31 27 -61 43 -95 50 -73 16 -462 13 -524 -4z m428 -1381
c157 -34 325 -141 422 -268 103 -134 149 -270 149 -446 1 -141 -12 -195 -76
-329 -44 -91 -61 -116 -137 -191 -70 -70 -103 -94 -181 -133 -127 -63 -199
-81 -335 -81 -134 0 -207 18 -331 79 -246 121 -404 377 -404 656 0 216 113
447 282 574 81 61 205 121 288 139 88 19 236 19 323 0z"/>
<path d="M1474 5889 c-16 -5 -41 -20 -55 -35 l-24 -26 0 -859 0 -859 28 -27
c24 -24 38 -29 110 -35 45 -4 158 -4 251 -1 167 6 170 7 200 34 l31 27 3 854
c2 831 2 854 -17 885 -14 21 -32 35 -58 42 -46 13 -425 13 -469 0z"/>
<path d="M3175 5803 c-210 -10 -425 -43 -676 -104 l-169 -41 0 -682 0 -683
101 -16 c129 -21 224 -62 924 -397 606 -290 731 -343 885 -375 136 -29 302
-15 795 65 132 21 340 53 463 70 258 36 343 56 444 103 85 40 595 379 701 466
153 126 208 204 210 299 0 46 -8 57 -59 88 -21 12 -15 29 31 93 19 25 25 47
25 84 0 153 -197 235 -422 178 -125 -32 -213 -84 -354 -206 -203 -178 -400
-235 -900 -261 -162 -8 -370 9 -479 42 -107 31 -393 152 -375 158 40 12 182
15 340 6 96 -5 285 -14 420 -20 135 -6 292 -18 350 -26 126 -19 195 -14 265
21 92 45 173 154 201 272 27 114 -43 230 -177 298 -156 80 -541 155 -949 185
-247 19 -336 39 -455 105 -107 60 -318 152 -430 188 -136 44 -293 75 -444 87
-112 9 -136 10 -266 3z"/>
</g>
</svg>
